<?xml version="1.0" encoding="iso-8859-1"?>
<!-- Generator: Adobe Illustrator 19.0.0, SVG Export Plug-In . SVG Version: 6.00 Build 0)  -->
<svg xmlns="http://www.w3.org/2000/svg" xmlns:xlink="http://www.w3.org/1999/xlink" version="1.1" id="Capa_1" x="0px" y="0px" viewBox="0 0 233.942 233.942" style="enable-background:new 0 0 233.942 233.942;" xml:space="preserve" width="512px" height="512px">
<g>
	<path d="M69.828,55.345l7.416-4.66c0.185-0.116,0.394-0.175,0.623-0.175c0.309,0,0.72,0.123,0.984,0.461l28.192,50.951l0.135,0.221   c2.049,3.056,5.498,4.809,9.464,4.809c1.581,0,3.179-0.294,4.607-0.843l34.048-12.903c0.754-0.289,1.545-0.436,2.35-0.436   c1.872,0,3.623,0.815,4.684,2.181l27.688,33.144c1.263,1.472,3.213,2.387,5.089,2.386c2.718,0,5.46-1.952,5.46-6.329l-0.105-21.406   c-0.017-2.98-1.46-6.96-3.356-9.257l-22.504-27.242c-2.258-2.898-6.299-4.697-10.564-4.697c-1.819,0-3.637,0.314-5.472,0.959   L126.258,74.74l-0.107,0.043c-2.587,1.094-5.115,0.21-6.639-2.199l-17.869-35.587l-0.178-0.309   c-0.196-0.296-0.188-0.584-0.147-0.772c0.034-0.155,0.138-0.446,0.455-0.646l6.196-3.894c1.935-1.215,2.936-2.988,2.745-4.864   c-0.191-1.876-1.527-3.411-3.669-4.213L73.624,9.789C72.845,9.498,72.049,9.35,71.26,9.35c-3.168,0-5.684,2.392-5.982,5.687   l-3.227,35.538c-0.203,2.234,0.573,3.6,1.26,4.352C64.853,56.616,67.465,56.831,69.828,55.345z" fill="#FFFFFF"/>
	<path d="M214.389,190.3L210,190.303v-32.63c0-7.477-6.125-13.841-13.602-13.841h-1.61c-7.477,0-13.788,6.364-13.788,13.841v32.652   l-14,0.01v-61.464c0-7.477-5.401-14.04-12.878-14.04h-1.609c-7.477,0-13.513,6.563-13.513,14.04v61.486l-14,0.01v-43.662   c0-7.477-5.678-13.874-13.154-13.874h-1.609c-7.477,0-14.236,6.397-14.236,13.874v43.684l-13,0.01V98.473   c0-7.201-5.728-12.641-12.93-12.641h-2.609C60.26,85.832,54,91.271,54,98.473v91.95l-16,0.013V25.67c0-10.785-8.729-19.56-19-19.56   S0,14.885,0,25.67v182.324c0,10.785,9.51,19.838,20.295,19.838h194.077c10.785,0,19.57-8.495,19.57-18.766   S225.178,190.3,214.389,190.3z" fill="#FFFFFF"/>
</g>
<g>
</g>
<g>
</g>
<g>
</g>
<g>
</g>
<g>
</g>
<g>
</g>
<g>
</g>
<g>
</g>
<g>
</g>
<g>
</g>
<g>
</g>
<g>
</g>
<g>
</g>
<g>
</g>
<g>
</g>
</svg>
