<?xml version="1.0" encoding="iso-8859-1"?>
<!-- Generator: Adobe Illustrator 19.0.0, SVG Export Plug-In . SVG Version: 6.00 Build 0)  -->
<svg xmlns="http://www.w3.org/2000/svg" xmlns:xlink="http://www.w3.org/1999/xlink" version="1.1" id="Capa_1" x="0px" y="0px" viewBox="0 0 512 512" style="enable-background:new 0 0 512 512;" xml:space="preserve" width="512px" height="512px">
<g>
	<g>
		<path d="M19,75.717v262h474v-262H19z M310.193,294.673H194.317c-30.355,0-55.051-24.695-55.051-55.051    c0-28.028,21.053-51.231,48.176-54.625c3.406-33.596,31.857-59.903,66.337-59.903c28.752,0,53.871,18.547,63.007,44.841    c31.398,3.306,55.948,29.939,55.948,62.197C372.734,266.618,344.678,294.673,310.193,294.673z" fill="#FFFFFF"/>
	</g>
</g>
<g>
	<g>
		<path d="M310.193,199.59c-1.18,0-2.382,0.065-3.574,0.195l-14.553,1.582l-1.936-14.511c-2.416-18.107-18.043-31.763-36.35-31.763    c-20.225,0-36.679,16.453-36.679,36.678c0,2.07,0.176,4.157,0.524,6.203l3.716,21.867l-21.679-4.694    c-1.769-0.383-3.567-0.577-5.345-0.577c-13.813,0-25.051,11.238-25.051,25.052c0,13.814,11.238,25.051,25.051,25.051h115.876    c17.943,0,32.542-14.598,32.542-32.541C342.734,214.189,328.136,199.59,310.193,199.59z" fill="#FFFFFF"/>
	</g>
</g>
<g>
	<g>
		<path d="M0,367.717v9.284c0,32.689,26.595,59.283,59.284,59.283h393.433C485.405,436.285,512,409.689,512,377.001v-9.284H0z" fill="#FFFFFF"/>
	</g>
</g>
<g>
</g>
<g>
</g>
<g>
</g>
<g>
</g>
<g>
</g>
<g>
</g>
<g>
</g>
<g>
</g>
<g>
</g>
<g>
</g>
<g>
</g>
<g>
</g>
<g>
</g>
<g>
</g>
<g>
</g>
</svg>
